<svg xmlns="http://www.w3.org/2000/svg" viewBox="0 0 128 128">
  <defs>
    <linearGradient id="ghost" x1="0%" y1="0%" x2="0%" y2="100%">
      <stop offset="0%" style="stop-color:#a78bfa"/>
      <stop offset="100%" style="stop-color:#7c3aed"/>
    </linearGradient>
  </defs>
  <g transform="translate(64, 56) scale(1.1)">
    <path d="M0-46C-25.4-46-46-25.4-46 0v50c0 3.2 2.4 4 4.8 2.4l11.2-11.2 11.2 11.2c1.6 1.6 4.8 1.6 6.4 0L0 40.8l12.4 11.6c1.6 1.6 4.8 1.6 6.4 0l11.2-11.2 11.2 11.2c2.4 1.6 4.8.8 4.8-2.4V0C46-25.4 25.4-46 0-46z" fill="url(#ghost)"/>
    <circle cx="-14" cy="-6" r="9" fill="#000000"/>
    <circle cx="14" cy="-6" r="9" fill="#000000"/>
  </g>
</svg>
